<svg aria-hidden="true" style="position: absolute; width: 0; height: 0; overflow: hidden;" version="1.1" xmlns="http://www.w3.org/2000/svg" xmlns:xlink="http://www.w3.org/1999/xlink">
<defs>
<symbol id="icon-settings" viewBox="0 0 24 24">
<path d="M16 12c0-1.104-0.449-2.106-1.172-2.828s-1.724-1.172-2.828-1.172-2.106 0.449-2.828 1.172-1.172 1.724-1.172 2.828 0.449 2.106 1.172 2.828 1.724 1.172 2.828 1.172 2.106-0.449 2.828-1.172 1.172-1.724 1.172-2.828zM14 12c0 0.553-0.223 1.051-0.586 1.414s-0.861 0.586-1.414 0.586-1.051-0.223-1.414-0.586-0.586-0.861-0.586-1.414 0.223-1.051 0.586-1.414 0.861-0.586 1.414-0.586 1.051 0.223 1.414 0.586 0.586 0.861 0.586 1.414zM20.315 15.404c0.046-0.105 0.112-0.191 0.192-0.257 0.112-0.092 0.251-0.146 0.403-0.147h0.090c0.828 0 1.58-0.337 2.121-0.879s0.879-1.293 0.879-2.121-0.337-1.58-0.879-2.121-1.293-0.879-2.121-0.879h-0.159c-0.11-0.001-0.215-0.028-0.308-0.076-0.127-0.066-0.23-0.172-0.292-0.312-0.003-0.029-0.004-0.059-0.004-0.089-0.024-0.055-0.040-0.111-0.049-0.168 0.020-0.334 0.077-0.454 0.168-0.547l0.062-0.062c0.585-0.586 0.878-1.356 0.877-2.122s-0.294-1.536-0.881-2.122c-0.586-0.585-1.356-0.878-2.122-0.877s-1.536 0.294-2.12 0.879l-0.046 0.046c-0.083 0.080-0.183 0.136-0.288 0.166-0.14 0.039-0.291 0.032-0.438-0.033-0.101-0.044-0.187-0.11-0.253-0.19-0.092-0.112-0.146-0.251-0.147-0.403v-0.090c0-0.828-0.337-1.58-0.879-2.121s-1.293-0.879-2.121-0.879-1.58 0.337-2.121 0.879-0.879 1.293-0.879 2.121v0.159c-0.001 0.11-0.028 0.215-0.076 0.308-0.066 0.127-0.172 0.23-0.312 0.292-0.029 0.003-0.059 0.004-0.089 0.004-0.055 0.024-0.111 0.040-0.168 0.049-0.335-0.021-0.455-0.078-0.548-0.169l-0.062-0.062c-0.586-0.585-1.355-0.878-2.122-0.878s-1.535 0.294-2.122 0.882c-0.585 0.586-0.878 1.355-0.878 2.122s0.294 1.536 0.879 2.12l0.048 0.047c0.080 0.083 0.136 0.183 0.166 0.288 0.039 0.14 0.032 0.291-0.031 0.434-0.006 0.016-0.013 0.034-0.021 0.052-0.041 0.109-0.108 0.203-0.191 0.275-0.11 0.095-0.25 0.153-0.383 0.156h-0.090c-0.828 0-1.58 0.337-2.121 0.879s-0.879 1.294-0.879 2.122 0.337 1.58 0.879 2.121 1.293 0.879 2.121 0.879h0.159c0.11 0.001 0.215 0.028 0.308 0.076 0.128 0.067 0.233 0.174 0.296 0.321 0.024 0.055 0.040 0.111 0.049 0.168-0.020 0.334-0.077 0.454-0.168 0.547l-0.062 0.062c-0.585 0.586-0.878 1.356-0.877 2.122s0.294 1.536 0.881 2.122c0.586 0.585 1.356 0.878 2.122 0.877s1.536-0.294 2.12-0.879l0.047-0.048c0.083-0.080 0.183-0.136 0.288-0.166 0.14-0.039 0.291-0.032 0.434 0.031 0.016 0.006 0.034 0.013 0.052 0.021 0.109 0.041 0.203 0.108 0.275 0.191 0.095 0.11 0.153 0.25 0.156 0.383v0.092c0 0.828 0.337 1.58 0.879 2.121s1.293 0.879 2.121 0.879 1.58-0.337 2.121-0.879 0.879-1.293 0.879-2.121v-0.159c0.001-0.11 0.028-0.215 0.076-0.308 0.067-0.128 0.174-0.233 0.321-0.296 0.055-0.024 0.111-0.040 0.168-0.049 0.334 0.020 0.454 0.077 0.547 0.168l0.062 0.062c0.586 0.585 1.356 0.878 2.122 0.877s1.536-0.294 2.122-0.881c0.585-0.586 0.878-1.356 0.877-2.122s-0.294-1.536-0.879-2.12l-0.048-0.047c-0.080-0.083-0.136-0.183-0.166-0.288-0.039-0.14-0.032-0.291 0.031-0.434zM18.396 9.302c-0.012-0.201-0.038-0.297-0.076-0.382v0.080c0 0.043 0.003 0.084 0.008 0.125 0.021 0.060 0.043 0.119 0.068 0.177 0.004 0.090 0.005 0.091 0.005 0.092 0.249 0.581 0.684 1.030 1.208 1.303 0.371 0.193 0.785 0.298 1.211 0.303h0.18c0.276 0 0.525 0.111 0.707 0.293s0.293 0.431 0.293 0.707-0.111 0.525-0.293 0.707-0.431 0.293-0.707 0.293h-0.090c-0.637 0.003-1.22 0.228-1.675 0.603-0.323 0.266-0.581 0.607-0.75 0.993-0.257 0.582-0.288 1.21-0.127 1.782 0.119 0.423 0.341 0.814 0.652 1.136l0.072 0.073c0.196 0.196 0.294 0.45 0.294 0.707s-0.097 0.512-0.292 0.707c-0.197 0.197-0.451 0.295-0.709 0.295s-0.512-0.097-0.707-0.292l-0.061-0.061c-0.463-0.453-1.040-0.702-1.632-0.752-0.437-0.037-0.882 0.034-1.293 0.212-0.578 0.248-1.027 0.683-1.3 1.206-0.193 0.371-0.298 0.785-0.303 1.211v0.181c0 0.276-0.111 0.525-0.293 0.707s-0.43 0.292-0.706 0.292-0.525-0.111-0.707-0.293-0.293-0.431-0.293-0.707v-0.090c-0.015-0.66-0.255-1.242-0.644-1.692-0.284-0.328-0.646-0.585-1.058-0.744-0.575-0.247-1.193-0.274-1.756-0.116-0.423 0.119-0.814 0.341-1.136 0.652l-0.073 0.072c-0.196 0.196-0.45 0.294-0.707 0.294s-0.512-0.097-0.707-0.292c-0.197-0.197-0.295-0.451-0.295-0.709s0.097-0.512 0.292-0.707l0.061-0.061c0.453-0.463 0.702-1.040 0.752-1.632 0.037-0.437-0.034-0.882-0.212-1.293-0.248-0.578-0.683-1.027-1.206-1.3-0.371-0.193-0.785-0.298-1.211-0.303l-0.18 0.001c-0.276 0-0.525-0.111-0.707-0.293s-0.293-0.431-0.293-0.707 0.111-0.525 0.293-0.707 0.431-0.293 0.707-0.293h0.090c0.66-0.015 1.242-0.255 1.692-0.644 0.328-0.284 0.585-0.646 0.744-1.058 0.247-0.575 0.274-1.193 0.116-1.756-0.119-0.423-0.341-0.814-0.652-1.136l-0.073-0.073c-0.196-0.196-0.294-0.45-0.294-0.707s0.097-0.512 0.292-0.707c0.197-0.197 0.451-0.295 0.709-0.295s0.512 0.097 0.707 0.292l0.061 0.061c0.463 0.453 1.040 0.702 1.632 0.752 0.37 0.032 0.745-0.014 1.101-0.137 0.096-0.012 0.186-0.036 0.266-0.072-0.031 0.001-0.061 0.003-0.089 0.004-0.201 0.012-0.297 0.038-0.382 0.076h0.080c0.043 0 0.084-0.003 0.125-0.008 0.060-0.021 0.119-0.043 0.177-0.068 0.090-0.004 0.091-0.005 0.092-0.005 0.581-0.249 1.030-0.684 1.303-1.208 0.193-0.37 0.298-0.785 0.303-1.21v-0.181c0-0.276 0.111-0.525 0.293-0.707s0.431-0.293 0.707-0.293 0.525 0.111 0.707 0.293 0.293 0.431 0.293 0.707v0.090c0.003 0.637 0.228 1.22 0.603 1.675 0.266 0.323 0.607 0.581 0.996 0.751 0.578 0.255 1.206 0.286 1.778 0.125 0.423-0.119 0.814-0.341 1.136-0.652l0.073-0.072c0.196-0.196 0.45-0.294 0.707-0.294s0.512 0.097 0.707 0.292c0.197 0.197 0.295 0.451 0.295 0.709s-0.097 0.512-0.292 0.707l-0.061 0.061c-0.453 0.463-0.702 1.040-0.752 1.632-0.032 0.37 0.014 0.745 0.137 1.101 0.012 0.095 0.037 0.185 0.072 0.266-0.001-0.032-0.002-0.062-0.004-0.089z"></path>
</symbol>
<symbol id="icon-file-iso" viewBox="0 0 32 32">
<path d="M8.007 10h16.986c1.671 0 3.007 1.343 3.007 2.999v7.002c0 1.657-1.346 2.999-3.007 2.999h-16.986c-1.671 0-3.007-1.343-3.007-2.999v-7.002c0-1.657 1.346-2.999 3.007-2.999zM7.995 11c-1.102 0-1.995 0.9-1.995 1.992v7.016c0 1.1 0.902 1.992 1.995 1.992h17.011c1.102 0 1.995-0.9 1.995-1.992v-7.016c0-1.1-0.902-1.992-1.995-1.992h-17.011zM10 14v5h-1v1h3v-1h-1v-5h1v-1h-3v1h1zM15.005 13c-1.107 0-2.005 0.888-2.005 2 0 1.105 0.888 2 2 2h0.991c0.557 0 1.009 0.444 1.009 1 0 0.552-0.443 1-0.999 1h-1.002c-0.552 0-0.999-0.456-0.999-0.996v-0.011h-1v0.006c0 1.105 0.894 2.001 2.005 2.001h0.99c1.107 0 2.005-0.888 2.005-2 0-1.105-0.888-2-2-2h-0.991c-0.557 0-1.009-0.444-1.009-1 0-0.552 0.443-1 0.999-1h1.002c0.552 0 0.999 0.453 0.999 1h1c0-1.105-0.894-2-2.005-2h-0.99zM21.005 13h0.99c1.111 0 2.005 0.898 2.005 2.006v2.988c0 1.119-0.898 2.006-2.005 2.006h-0.99c-1.111 0-2.005-0.898-2.005-2.006v-2.988c0-1.119 0.898-2.006 2.005-2.006zM20.999 14c-0.552 0-0.999 0.444-0.999 1v3c0 0.552 0.443 1 0.999 1h1.002c0.552 0 0.999-0.444 0.999-1v-3c0-0.552-0.443-1-0.999-1h-1.002z"></path>
</symbol>
<symbol id="icon-tools" viewBox="0 0 31 32">
<path d="M0.211 5.646c-0.847 0.848-0.666 2.042 0.008 2.715 0.027 0.026 2.734 2.612 6.541 6.419 0.098 0.098 0.226 0.146 0.354 0.146s0.256-0.049 0.354-0.146c0.195-0.195 0.195-0.512 0-0.707-0.574-0.574-1.12-1.117-1.638-1.631l1.589-1.589c0.195-0.195 0.195-0.512 0-0.707s-0.512-0.195-0.707 0l-1.593 1.593c-0.891-0.88-1.676-1.648-2.315-2.271l3.615-3.615c0.195-0.195 0.195-0.512 0-0.707s-0.512-0.195-0.707 0l-3.626 3.626c-0.736-0.713-1.16-1.118-1.167-1.125-0.211-0.211-0.488-0.805 0-1.293l5-5c0.193-0.196 0.707-0.585 1.271-0.024 0.025 0.028 2.55 2.896 6.404 6.75 0.195 0.195 0.512 0.195 0.707 0s0.195-0.512 0-0.707c-3.83-3.829-6.336-6.675-6.382-6.727-0.932-0.93-2.056-0.651-2.707 0l-5.001 5zM21.419 24.146c-0.195-0.195-0.512-0.195-0.707 0l-1.591 1.59c-0.485-0.491-0.994-1.005-1.53-1.541-0.195-0.195-0.512-0.195-0.707 0s-0.195 0.512 0 0.707c3.704 3.703 6.291 6.469 6.328 6.509 0.343 0.344 0.813 0.533 1.323 0.533v0c0.525 0 1.056-0.205 1.385-0.535l4.998-5.057c0.629-0.629 0.665-1.696 0.078-2.285l-6.706-6.705c-0.195-0.195-0.512-0.195-0.707 0s-0.195 0.512 0 0.707l6.706 6.705c0.2 0.2 0.162 0.632-0.079 0.873l-4.999 5.057c-0.115 0.116-0.376 0.24-0.676 0.24 0 0 0 0 0 0-0.172 0-0.418-0.042-0.604-0.229-0.010-0.011-0.429-0.458-1.156-1.219l3.644-3.644c0.195-0.195 0.195-0.512 0-0.707s-0.512-0.195-0.707 0l-3.629 3.629c-0.624-0.649-1.389-1.438-2.26-2.326l1.596-1.596c0.195-0.194 0.195-0.51 0-0.706zM-0.293 31.829c0.096 0.098 0.225 0.15 0.358 0.15 0.048 0 0.096-0.007 0.143-0.021l10-2.979c0.081-0.024 0.153-0.067 0.212-0.127l17.090-17.205c0.024-0.024 0.036-0.055 0.054-0.082l3.656-3.656c0.294-0.295 0.457-0.686 0.457-1.103s-0.163-0.807-0.457-1.1l-5.235-5.234c-0.588-0.588-1.615-0.588-2.203 0l-3.739 3.739c-0.024 0.024-0.037 0.055-0.055 0.083l-17.116 17.117c-0.056 0.056-0.098 0.124-0.122 0.199l-3.16 9.715c-0.058 0.177-0.013 0.37 0.117 0.504zM20.425 5.271l1.039 1.039-15.523 15.565-1.727-0.392 16.211-16.212zM6.565 22.666l15.607-15.648 2.436 2.436-15.748 15.546h-2.295v-2.334zM26.449 11.296l-16.244 16.354-0.577-2.002 15.687-15.487 1.134 1.135zM3.558 22.359l2.007 0.456v2.685c0 0.276 0.224 0.5 0.5 0.5h2.624l0.634 2.2-8.488 2.529 2.723-8.37zM24.49 1.179c0.211-0.211 0.578-0.211 0.789 0l5.235 5.235c0.105 0.105 0.163 0.245 0.163 0.394 0 0.148-0.058 0.289-0.164 0.395l-3.371 3.372-6.023-6.023 3.371-3.373z"></path>
</symbol>
<symbol id="icon-ruler" viewBox="0 0 32 32">
<path d="M6.058 6.835l0.686 0.686-2.808 2.808 2.188 2.188 2.821-2.821 0.641 0.641-2.821 2.822 2.16 2.159 6.416-6.416-7.812-7.766-6.393 6.393 2.114 2.115 2.808-2.809zM23.099 16.659l-6.416 6.417 2.159 2.159 2.822-2.821 0.641 0.641-2.821 2.821 2.188 2.188 2.807-2.808 0.686 0.686-2.807 2.808 2.113 2.114 6.394-6.394-7.766-7.811zM29.822 8.451c0.781-0.782 0.787-2.045 0.012-2.821l-3.512-3.511c-0.775-0.775-2.039-0.771-2.82 0.012l-2.17 2.17 6.32 6.32 2.17-2.17zM3.398 25.942l2.623 2.623 5.284-1.877-6.030-6.030-1.877 5.284zM20.65 4.943l-14.885 14.886 6.369 6.369 14.886-14.886-6.37-6.369zM8.657 19.816l11.981-11.981 0.698 0.698-11.982 11.982-0.697-0.699zM10.053 21.213l11.98-11.981 0.698 0.698-11.981 11.98-0.697-0.697zM11.449 22.608l11.981-11.981 0.697 0.698-11.98 11.981-0.698-0.698zM1.954 30.010l3.066-1.117-1.949-1.949-1.117 3.066z"></path>
</symbol>
<symbol id="icon-line-chart" viewBox="0 0 32 28">
<path d="M32 24v2h-32v-24h2v22h30zM30 4.5v6.797c0 0.438-0.531 0.672-0.859 0.344l-1.891-1.891-9.891 9.891c-0.203 0.203-0.516 0.203-0.719 0l-3.641-3.641-6.5 6.5-3-3 9.141-9.141c0.203-0.203 0.516-0.203 0.719 0l3.641 3.641 7.25-7.25-1.891-1.891c-0.328-0.328-0.094-0.859 0.344-0.859h6.797c0.281 0 0.5 0.219 0.5 0.5z"></path>
</symbol>
<symbol id="icon-bar-graph" viewBox="0 0 28 28">
<path d="M23.8 1.4h-2.8c-0.773 0-1.4 0.626-1.4 1.4v23.789h5.6v-23.789c0-0.774-0.626-1.4-1.4-1.4zM15.4 9.8h-2.8c-0.773 0-1.4 0.626-1.4 1.4v15.389h5.6v-15.389c0-0.774-0.626-1.4-1.4-1.4zM7 18.2h-2.8c-0.773 0-1.4 0.626-1.4 1.4v6.989h5.6v-6.989c0-0.774-0.626-1.4-1.4-1.4z"></path>
</symbol>
<symbol id="icon-area-graph" viewBox="0 0 28 28">
<path d="M28 2.8v22.4h-27.552c-0.445 0-0.582-0.293-0.302-0.651l6.257-8.047c0.279-0.358 0.774-0.396 1.105-0.087l1.987 1.868c0.329 0.309 0.801 0.249 1.046-0.134l4.266-6.636c0.245-0.382 0.713-0.437 1.037-0.126l3.039 2.934c0.325 0.315 0.783 0.252 1.014-0.14l7.186-10.899c0.232-0.395 0.568-0.482 0.918-0.482z"></path>
</symbol>
<symbol id="icon-cog" viewBox="0 0 20 20">
<path d="M16.783 10c0-1.049 0.646-1.875 1.617-2.443-0.176-0.584-0.407-1.145-0.692-1.672-1.089 0.285-1.97-0.141-2.711-0.883-0.741-0.74-0.968-1.621-0.683-2.711-0.527-0.285-1.088-0.518-1.672-0.691-0.568 0.97-1.595 1.615-2.642 1.615-1.048 0-2.074-0.645-2.643-1.615-0.585 0.173-1.144 0.406-1.671 0.691 0.285 1.090 0.059 1.971-0.684 2.711-0.74 0.742-1.621 1.168-2.711 0.883-0.285 0.527-0.517 1.088-0.691 1.672 0.97 0.568 1.615 1.394 1.615 2.443 0 1.047-0.645 2.074-1.615 2.643 0.175 0.584 0.406 1.144 0.691 1.672 1.090-0.285 1.971-0.059 2.711 0.682s0.969 1.623 0.684 2.711c0.527 0.285 1.087 0.518 1.672 0.693 0.568-0.973 1.595-1.617 2.643-1.617 1.047 0 2.074 0.645 2.643 1.617 0.584-0.176 1.144-0.408 1.672-0.693-0.285-1.088-0.059-1.969 0.683-2.711 0.741-0.74 1.622-1.166 2.711-0.883 0.285-0.527 0.517-1.086 0.692-1.672-0.973-0.569-1.619-1.395-1.619-2.442zM10 13.652c-2.018 0-3.653-1.635-3.653-3.652 0-2.018 1.636-3.654 3.653-3.654s3.652 1.637 3.652 3.654c0 2.018-1.634 3.652-3.652 3.652z"></path>
</symbol>
<symbol id="icon-bar-graph" viewBox="0 0 20 20">
<path d="M17 1h-2c-0.552 0-1 0.447-1 1v16.992h4v-16.992c0-0.553-0.447-1-1-1zM11 7h-2c-0.552 0-1 0.447-1 1v10.992h4v-10.992c0-0.553-0.447-1-1-1zM5 13h-2c-0.552 0-1 0.447-1 1v4.992h4v-4.992c0-0.553-0.447-1-1-1z"></path>
</symbol>
<symbol id="icon-area-graph" viewBox="0 0 20 20">
<path d="M20 2v16h-19.68c-0.318 0-0.416-0.209-0.216-0.465l4.469-5.748c0.199-0.256 0.553-0.283 0.789-0.062l1.419 1.334c0.235 0.221 0.572 0.178 0.747-0.096l3.047-4.74c0.175-0.273 0.509-0.312 0.741-0.090l2.171 2.096c0.232 0.225 0.559 0.18 0.724-0.1l5.133-7.785c0.166-0.282 0.406-0.344 0.656-0.344z"></path>
</symbol>
<symbol id="icon-chart" viewBox="0 0 20 20">
<path d="M4.13 12h-0.13c-1.101 0.005-1.991 0.899-1.991 2 0 1.105 0.895 2 2 2s2-0.895 2-2c0-0.324-0.077-0.631-0.214-0.901l0.005 0.011 2.060-3.11c0.033 0.002 0.072 0.003 0.11 0.003 0.192 0 0.378-0.027 0.554-0.076l-0.014 0.003 1.55 1.55c-0.044 0.157-0.070 0.337-0.070 0.523 0 1.105 0.895 2 2 2s2-0.895 2-2c0-0.325-0.078-0.633-0.216-0.904l0.005 0.011 2.090-3.11h0.13c1.101-0.005 1.991-0.899 1.991-2 0-1.105-0.895-2-2-2s-2 0.895-2 2c0 0.324 0.077 0.631 0.214 0.901l-0.005-0.011-2.060 3.11c-0.033-0.002-0.072-0.003-0.11-0.003-0.192 0-0.378 0.027-0.554 0.076l0.014-0.003-1.56-1.55c0.044-0.157 0.070-0.337 0.070-0.523 0-1.105-0.895-2-2-2s-2 0.895-2 2c0 0.325 0.078 0.633 0.216 0.904l-0.005-0.011-2.080 3.11zM0 4c0-1.1 0.9-2 2-2h16c1.105 0 2 0.895 2 2v0 12c0 1.105-0.895 2-2 2v0h-16c-1.105 0-2-0.895-2-2v0-12z"></path>
</symbol>
<symbol id="icon-kubernetes" viewBox="0 0 32 32">
<path fill="#326ce5" style="fill: var(--color1, #326ce5)" d="M13.605 19.133l0.009 0.013-1.332 3.217c-1.266-0.819-2.231-2.009-2.751-3.415l-0.015-0.048 3.437-0.583 0.005 0.007c0.032-0.006 0.069-0.010 0.107-0.010 0.324 0 0.587 0.263 0.587 0.587 0 0.084-0.017 0.163-0.049 0.235l0.001-0.004zM12.495 16.295c0.251-0.070 0.432-0.297 0.432-0.566 0-0.176-0.078-0.334-0.2-0.442l-0.001-0.001 0.003-0.015-2.615-2.339c-0.637 1.021-1.015 2.261-1.015 3.589 0 0.264 0.015 0.525 0.044 0.782l-0.003-0.031 3.352-0.967zM14.021 13.655c0.096 0.070 0.216 0.113 0.346 0.113 0.315 0 0.573-0.249 0.586-0.561l0-0.001 0.013-0.007 0.2-3.493c-1.576 0.189-2.962 0.888-4.014 1.924l0.001-0.001 2.863 2.031zM15.035 17.321l0.964 0.465 0.963-0.463 0.24-1.040-0.667-0.831h-1.072l-0.667 0.831zM17.035 13.195c0.014 0.313 0.271 0.562 0.586 0.562 0.131 0 0.251-0.043 0.349-0.115l-0.002 0.001 0.011 0.004 2.845-2.017c-1.048-1.027-2.423-1.723-3.955-1.919l-0.034-0.004 0.197 3.487zM31.536 21.155l-7.697 9.575c-0.394 0.485-0.991 0.792-1.659 0.792-0.002 0-0.004 0-0.005 0l-12.348 0.004c-0 0-0.001 0-0.002 0-0.669 0-1.267-0.308-1.658-0.791l-0.003-0.004-7.701-9.573c-0.288-0.358-0.462-0.817-0.462-1.318 0-0.166 0.019-0.328 0.056-0.483l-0.003 0.014 2.747-11.94c0.144-0.627 0.567-1.152 1.151-1.431l11.123-5.316c0.27-0.132 0.588-0.209 0.923-0.209s0.653 0.077 0.936 0.215l-0.013-0.006 11.127 5.313c0.584 0.279 1.007 0.805 1.151 1.431l2.749 11.94c0.144 0.627-0.007 1.284-0.411 1.787zM27.151 18.412c-0.056-0.013-0.137-0.035-0.193-0.045-0.232-0.044-0.42-0.033-0.639-0.051-0.467-0.049-0.851-0.089-1.193-0.197-0.14-0.053-0.24-0.22-0.288-0.288l-0.268-0.079c0.051-0.353 0.081-0.76 0.081-1.174 0-0.686-0.080-1.354-0.232-1.994l0.012 0.058c-0.256-1.095-0.687-2.059-1.267-2.914l0.019 0.030c0.069-0.063 0.2-0.177 0.236-0.212 0.011-0.12 0.001-0.244 0.125-0.376 0.263-0.247 0.592-0.451 0.991-0.696 0.189-0.112 0.364-0.183 0.553-0.323 0.043-0.032 0.101-0.083 0.147-0.119 0.32-0.255 0.393-0.693 0.164-0.981s-0.675-0.315-0.993-0.060c-0.045 0.036-0.107 0.083-0.148 0.117-0.179 0.155-0.289 0.307-0.44 0.467-0.328 0.333-0.6 0.611-0.897 0.812-0.129 0.075-0.319 0.049-0.404 0.044l-0.253 0.18c-1.415-1.482-3.34-2.466-5.493-2.668l-0.035-0.003-0.016-0.297c-0.087-0.083-0.191-0.153-0.217-0.333-0.029-0.357 0.020-0.743 0.076-1.207 0.031-0.217 0.081-0.397 0.091-0.633 0.001-0.053-0.001-0.132-0.001-0.189 0-0.408-0.299-0.74-0.667-0.74-0.367 0-0.665 0.332-0.665 0.74l0.001 0.019c0 0.055-0.003 0.123 0 0.171 0.008 0.236 0.059 0.416 0.089 0.633 0.056 0.464 0.104 0.849 0.075 1.208-0.040 0.137-0.115 0.254-0.215 0.343l-0.001 0.001-0.016 0.281c-2.201 0.182-4.142 1.171-5.551 2.666l-0.004 0.004c-0.115-0.079-0.193-0.135-0.271-0.192l0.031 0.022c-0.12 0.016-0.24 0.053-0.396-0.039-0.297-0.2-0.569-0.477-0.897-0.811-0.151-0.16-0.26-0.312-0.439-0.465-0.040-0.035-0.103-0.083-0.148-0.117-0.126-0.103-0.287-0.168-0.462-0.176l-0.002-0c-0.010-0.001-0.022-0.001-0.034-0.001-0.2 0-0.378 0.091-0.496 0.234l-0.001 0.001c-0.229 0.288-0.156 0.728 0.164 0.983l0.009 0.007 0.139 0.111c0.189 0.14 0.363 0.212 0.552 0.323 0.399 0.247 0.728 0.451 0.991 0.696 0.101 0.109 0.12 0.301 0.133 0.384l0.213 0.191c-0.907 1.343-1.448 2.999-1.448 4.781 0 0.433 0.032 0.859 0.094 1.275l-0.006-0.047-0.277 0.080c-0.073 0.096-0.177 0.245-0.287 0.289-0.343 0.108-0.728 0.147-1.193 0.196-0.219 0.019-0.407 0.008-0.64 0.052-0.049 0.009-0.12 0.027-0.177 0.040l-0.005 0.003-0.009 0.003c-0.393 0.095-0.645 0.456-0.564 0.811 0.081 0.356 0.465 0.572 0.86 0.487l0.009-0.001 0.013-0.004 0.172-0.039c0.227-0.061 0.392-0.151 0.597-0.229 0.44-0.157 0.805-0.289 1.16-0.341 0.149-0.012 0.307 0.092 0.384 0.135l0.289-0.049c0.676 2.048 2.035 3.716 3.801 4.773l0.039 0.022-0.12 0.291c0.044 0.112 0.092 0.265 0.059 0.376-0.129 0.336-0.351 0.689-0.603 1.084-0.121 0.181-0.247 0.323-0.357 0.532-0.027 0.049-0.060 0.127-0.085 0.179-0.171 0.367-0.045 0.788 0.284 0.947 0.331 0.16 0.741-0.009 0.92-0.376v-0.003c0.027-0.052 0.061-0.12 0.083-0.169 0.093-0.216 0.125-0.401 0.192-0.611 0.176-0.443 0.273-0.907 0.516-1.196 0.067-0.080 0.173-0.109 0.287-0.14l0.151-0.273c0.918 0.364 1.981 0.575 3.094 0.575 1.097 0 2.146-0.205 3.11-0.579l-0.059 0.020 0.141 0.256c0.115 0.037 0.24 0.056 0.341 0.207 0.181 0.309 0.305 0.676 0.456 1.12 0.067 0.208 0.099 0.393 0.193 0.609 0.021 0.049 0.057 0.12 0.083 0.172 0.177 0.368 0.589 0.536 0.92 0.376 0.329-0.157 0.455-0.58 0.284-0.947-0.027-0.052-0.060-0.128-0.087-0.179-0.111-0.208-0.236-0.348-0.357-0.531-0.253-0.395-0.461-0.721-0.591-1.057-0.053-0.173 0.009-0.28 0.051-0.392-0.024-0.029-0.079-0.192-0.111-0.269 1.811-1.087 3.171-2.768 3.823-4.768l0.017-0.061c0.085 0.013 0.235 0.040 0.284 0.051 0.1-0.067 0.192-0.152 0.373-0.139 0.355 0.052 0.72 0.184 1.16 0.341 0.205 0.080 0.369 0.171 0.597 0.231 0.048 0.013 0.117 0.025 0.173 0.037l0.012 0.004 0.009 0.001c0.396 0.085 0.779-0.131 0.86-0.487 0.080-0.355-0.171-0.716-0.564-0.811zM21.867 12.935l-2.6 2.328v0.007c-0.124 0.108-0.202 0.267-0.202 0.443 0 0.269 0.181 0.496 0.429 0.565l0.004 0.001 0.004 0.013 3.368 0.971c0.021-0.203 0.033-0.438 0.033-0.676 0-0.552-0.064-1.089-0.186-1.604l0.009 0.047c-0.185-0.793-0.481-1.493-0.876-2.125l0.017 0.029zM16.516 20.035c-0.1-0.186-0.293-0.31-0.515-0.31-0.008 0-0.017 0-0.025 0.001l0.001-0c-0.215 0.008-0.399 0.131-0.494 0.308l-0.002 0.003h-0.003l-1.691 3.056c0.663 0.234 1.427 0.369 2.223 0.369 0.792 0 1.552-0.134 2.26-0.379l-0.048 0.015-1.693-3.061zM19.033 18.311c-0.032-0.006-0.069-0.010-0.106-0.010-0.092 0-0.18 0.021-0.257 0.059l0.003-0.002c-0.199 0.097-0.334 0.297-0.334 0.529 0 0.084 0.018 0.165 0.050 0.237l-0.001-0.004-0.004 0.005 1.347 3.251c1.274-0.822 2.244-2.022 2.759-3.439l0.015-0.048-3.467-0.587z"></path>
</symbol>
<symbol id="icon-amazonaws" viewBox="0 0 32 32">
<path d="M9.017 13.381c0 0.395 0.043 0.713 0.117 0.947 0.085 0.235 0.192 0.491 0.341 0.768 0.053 0.084 0.075 0.169 0.075 0.244 0 0.107-0.064 0.213-0.203 0.32l-0.671 0.447c-0.077 0.056-0.173 0.091-0.276 0.096l-0.001 0c-0.107 0-0.213-0.053-0.319-0.149-0.138-0.148-0.264-0.312-0.375-0.486l-0.008-0.014c-0.098-0.162-0.208-0.368-0.309-0.579l-0.021-0.049c-0.829 0.979-1.873 1.468-3.129 1.468-0.893 0-1.607-0.255-2.128-0.765-0.521-0.512-0.787-1.192-0.787-2.044 0-0.904 0.319-1.64 0.968-2.192 0.649-0.553 1.511-0.831 2.607-0.831 0.363 0 0.735 0.032 1.128 0.085 0.395 0.053 0.8 0.139 1.224 0.235v-0.777c0-0.809-0.169-1.373-0.5-1.703-0.34-0.331-0.915-0.489-1.733-0.489-0.373 0-0.757 0.041-1.151 0.137s-0.777 0.213-1.149 0.363c-0.101 0.047-0.224 0.094-0.352 0.133l-0.022 0.006c-0.050 0.017-0.108 0.028-0.168 0.031l-0.002 0c-0.149 0-0.224-0.107-0.224-0.329v-0.521c0-0.171 0.021-0.299 0.075-0.373 0.080-0.095 0.18-0.171 0.294-0.221l0.005-0.002c0.372-0.192 0.819-0.352 1.34-0.48 0.48-0.128 1.032-0.202 1.601-0.202 0.021 0 0.043 0 0.064 0l-0.003-0c1.267 0 2.192 0.288 2.788 0.863 0.585 0.573 0.883 1.447 0.883 2.617zM4.697 15c0.351 0 0.712-0.064 1.096-0.192 0.383-0.128 0.724-0.361 1.011-0.68 0.171-0.203 0.299-0.427 0.363-0.683 0.063-0.255 0.107-0.564 0.107-0.925v-0.447c-0.264-0.069-0.597-0.132-0.935-0.177l-0.045-0.005c-0.3-0.040-0.647-0.063-0.999-0.064h-0.001c-0.713 0-1.235 0.139-1.587 0.427-0.351 0.287-0.52 0.691-0.52 1.223 0 0.5 0.127 0.873 0.393 1.128 0.255 0.267 0.627 0.395 1.117 0.395zM13.244 16.149c-0.192 0-0.32-0.032-0.405-0.107-0.085-0.064-0.16-0.213-0.224-0.415l-2.5-8.228c-0.045-0.124-0.079-0.269-0.095-0.418l-0.001-0.008c0-0.171 0.085-0.267 0.255-0.267h1.044c0.201 0 0.34 0.033 0.413 0.107 0.087 0.064 0.151 0.213 0.213 0.416l1.789 7.045 1.66-7.045c0.053-0.213 0.117-0.352 0.201-0.416 0.109-0.068 0.241-0.108 0.383-0.108 0.015 0 0.031 0 0.046 0.001l-0.002-0h0.851c0.203 0 0.341 0.033 0.427 0.107 0.084 0.064 0.16 0.213 0.201 0.416l1.681 7.131 1.841-7.131c0.064-0.213 0.139-0.352 0.213-0.416 0.105-0.068 0.234-0.108 0.372-0.108 0.015 0 0.030 0 0.045 0.001l-0.002-0h0.991c0.169 0 0.267 0.087 0.267 0.267 0 0.053-0.012 0.107-0.023 0.171-0.019 0.102-0.045 0.191-0.078 0.277l0.004-0.010-2.564 8.227c-0.064 0.213-0.139 0.351-0.224 0.415-0.104 0.067-0.231 0.108-0.367 0.108-0.013 0-0.026-0-0.039-0.001l0.002 0h-0.916c-0.201 0-0.34-0.032-0.427-0.107-0.084-0.075-0.159-0.213-0.2-0.427l-1.651-6.864-1.64 6.853c-0.053 0.213-0.116 0.352-0.2 0.427-0.087 0.075-0.236 0.107-0.427 0.107zM26.919 16.436c-0.553 0-1.107-0.064-1.639-0.191-0.532-0.128-0.947-0.267-1.224-0.427-0.171-0.095-0.287-0.201-0.329-0.297-0.040-0.088-0.063-0.19-0.064-0.298v-0.543c0-0.223 0.085-0.329 0.244-0.329 0.064 0 0.128 0.011 0.192 0.032s0.16 0.064 0.267 0.107c0.361 0.16 0.755 0.287 1.171 0.372 0.425 0.085 0.84 0.128 1.267 0.128 0.669 0 1.192-0.117 1.553-0.352 0.334-0.204 0.554-0.567 0.554-0.981 0-0.010-0-0.021-0-0.031l0 0.002c0-0.009 0-0.019 0-0.030 0-0.278-0.109-0.53-0.287-0.716l0 0c-0.192-0.201-0.555-0.383-1.076-0.553l-1.543-0.48c-0.777-0.244-1.352-0.605-1.703-1.084-0.33-0.422-0.53-0.959-0.533-1.543v-0.001c0-0.447 0.097-0.84 0.288-1.181 0.192-0.34 0.447-0.639 0.767-0.872 0.32-0.245 0.68-0.427 1.107-0.553 0.427-0.128 0.873-0.181 1.341-0.181 0.233 0 0.479 0.011 0.713 0.043 0.244 0.032 0.467 0.075 0.691 0.117 0.213 0.053 0.416 0.107 0.607 0.169 0.192 0.064 0.341 0.128 0.448 0.192 0.128 0.065 0.235 0.155 0.318 0.264l0.002 0.002c0.060 0.089 0.096 0.199 0.096 0.317 0 0.012-0 0.024-0.001 0.035l0-0.002v0.5c0 0.224-0.085 0.341-0.245 0.341-0.151-0.018-0.287-0.063-0.41-0.131l0.006 0.003c-0.579-0.262-1.255-0.415-1.968-0.415-0.026 0-0.053 0-0.079 0.001l0.004-0c-0.607 0-1.087 0.095-1.416 0.297-0.331 0.203-0.5 0.511-0.5 0.947 0 0.299 0.107 0.555 0.32 0.756 0.212 0.203 0.605 0.405 1.169 0.587l1.512 0.477c0.765 0.245 1.32 0.587 1.649 1.023s0.489 0.936 0.489 1.489c0 0.457-0.096 0.873-0.276 1.235-0.192 0.363-0.448 0.681-0.777 0.937-0.331 0.267-0.724 0.457-1.181 0.596-0.48 0.148-0.979 0.223-1.523 0.223zM28.931 21.609c-3.501 2.587-8.589 3.959-12.963 3.959-6.131 0-11.653-2.267-15.827-6.035-0.329-0.297-0.032-0.703 0.363-0.468 4.512 2.617 10.079 4.204 15.836 4.204 3.885 0 8.152-0.809 12.080-2.469 0.585-0.267 1.085 0.383 0.511 0.809zM30.389 19.948c-0.448-0.573-2.96-0.276-4.099-0.137-0.34 0.043-0.393-0.256-0.084-0.48 2-1.404 5.289-1 5.672-0.532 0.383 0.48-0.107 3.768-1.98 5.343-0.287 0.245-0.564 0.117-0.436-0.201 0.427-1.053 1.373-3.427 0.927-3.992z"></path>
</symbol>
<symbol id="icon-office" viewBox="0 0 32 32">
<path d="M0 32h16v-32h-16v32zM10 4h4v4h-4v-4zM10 12h4v4h-4v-4zM10 20h4v4h-4v-4zM2 4h4v4h-4v-4zM2 12h4v4h-4v-4zM2 20h4v4h-4v-4zM18 10h14v2h-14zM18 32h4v-8h6v8h4v-18h-14z"></path>
</symbol>
<symbol id="icon-hour-glass" viewBox="0 0 32 32">
<path d="M22.781 16c4.305-2.729 7.219-7.975 7.219-14 0-0.677-0.037-1.345-0.109-2h-27.783c-0.072 0.655-0.109 1.323-0.109 2 0 6.025 2.914 11.271 7.219 14-4.305 2.729-7.219 7.975-7.219 14 0 0.677 0.037 1.345 0.109 2h27.783c0.072-0.655 0.109-1.323 0.109-2 0-6.025-2.914-11.271-7.219-14zM5 30c0-5.841 2.505-10.794 7-12.428v-3.143c-4.495-1.634-7-6.587-7-12.428v0h22c0 5.841-2.505 10.794-7 12.428v3.143c4.495 1.634 7 6.587 7 12.428h-22zM19.363 20.925c-2.239-1.27-2.363-2.918-2.363-3.918v-2.007c0-1 0.119-2.654 2.367-3.927 1.203-0.699 2.244-1.761 3.033-3.073h-12.799c0.79 1.313 1.832 2.376 3.036 3.075 2.239 1.27 2.363 2.918 2.363 3.918v2.007c0 1-0.119 2.654-2.367 3.927-2.269 1.318-3.961 3.928-4.472 7.073h15.677c-0.511-3.147-2.204-5.758-4.475-7.075z"></path>
</symbol>
<symbol id="icon-home2" viewBox="0 0 32 32">
<path d="M16 1l-16 16 3 3 3-3v13h8v-6h4v6h8v-13l3 3 3-3-16-16zM16 14c-1.105 0-2-0.895-2-2s0.895-2 2-2c1.105 0 2 0.895 2 2s-0.895 2-2 2z"></path>
</symbol>
<symbol id="icon-home3" viewBox="0 0 32 32">
<path d="M32 19l-6-6v-9h-4v5l-6-6-16 16v1h4v10h10v-6h4v6h10v-10h4z"></path>
</symbol>
<symbol id="icon-office" viewBox="0 0 32 32">
<path d="M0 32h16v-32h-16v32zM10 4h4v4h-4v-4zM10 12h4v4h-4v-4zM10 20h4v4h-4v-4zM2 4h4v4h-4v-4zM2 12h4v4h-4v-4zM2 20h4v4h-4v-4zM18 10h14v2h-14zM18 32h4v-8h6v8h4v-18h-14z"></path>
</symbol>
<symbol id="icon-hour-glass" viewBox="0 0 32 32">
<path d="M22.781 16c4.305-2.729 7.219-7.975 7.219-14 0-0.677-0.037-1.345-0.109-2h-27.783c-0.072 0.655-0.109 1.323-0.109 2 0 6.025 2.914 11.271 7.219 14-4.305 2.729-7.219 7.975-7.219 14 0 0.677 0.037 1.345 0.109 2h27.783c0.072-0.655 0.109-1.323 0.109-2 0-6.025-2.914-11.271-7.219-14zM5 30c0-5.841 2.505-10.794 7-12.428v-3.143c-4.495-1.634-7-6.587-7-12.428v0h22c0 5.841-2.505 10.794-7 12.428v3.143c4.495 1.634 7 6.587 7 12.428h-22zM19.363 20.925c-2.239-1.27-2.363-2.918-2.363-3.918v-2.007c0-1 0.119-2.654 2.367-3.927 1.203-0.699 2.244-1.761 3.033-3.073h-12.799c0.79 1.313 1.832 2.376 3.036 3.075 2.239 1.27 2.363 2.918 2.363 3.918v2.007c0 1-0.119 2.654-2.367 3.927-2.269 1.318-3.961 3.928-4.472 7.073h15.677c-0.511-3.147-2.204-5.758-4.475-7.075z"></path>
</symbol>
<symbol id="icon-spinner2" viewBox="0 0 32 32">
<path d="M32 16c-0.040-2.089-0.493-4.172-1.331-6.077-0.834-1.906-2.046-3.633-3.533-5.060-1.486-1.428-3.248-2.557-5.156-3.302-1.906-0.748-3.956-1.105-5.981-1.061-2.025 0.040-4.042 0.48-5.885 1.292-1.845 0.809-3.517 1.983-4.898 3.424s-2.474 3.147-3.193 4.994c-0.722 1.846-1.067 3.829-1.023 5.79 0.040 1.961 0.468 3.911 1.254 5.694 0.784 1.784 1.921 3.401 3.316 4.736 1.394 1.336 3.046 2.391 4.832 3.085 1.785 0.697 3.701 1.028 5.598 0.985 1.897-0.040 3.78-0.455 5.502-1.216 1.723-0.759 3.285-1.859 4.574-3.208 1.29-1.348 2.308-2.945 2.977-4.67 0.407-1.046 0.684-2.137 0.829-3.244 0.039 0.002 0.078 0.004 0.118 0.004 1.105 0 2-0.895 2-2 0-0.056-0.003-0.112-0.007-0.167h0.007zM28.822 21.311c-0.733 1.663-1.796 3.169-3.099 4.412s-2.844 2.225-4.508 2.868c-1.663 0.646-3.447 0.952-5.215 0.909-1.769-0.041-3.519-0.429-5.119-1.14-1.602-0.708-3.053-1.734-4.25-2.991s-2.141-2.743-2.76-4.346c-0.621-1.603-0.913-3.319-0.871-5.024 0.041-1.705 0.417-3.388 1.102-4.928 0.683-1.541 1.672-2.937 2.883-4.088s2.642-2.058 4.184-2.652c1.542-0.596 3.192-0.875 4.832-0.833 1.641 0.041 3.257 0.404 4.736 1.064 1.48 0.658 2.82 1.609 3.926 2.774s1.975 2.54 2.543 4.021c0.57 1.481 0.837 3.064 0.794 4.641h0.007c-0.005 0.055-0.007 0.11-0.007 0.167 0 1.032 0.781 1.88 1.784 1.988-0.195 1.088-0.517 2.151-0.962 3.156z"></path>
</symbol>
<symbol id="icon-spinner10" viewBox="0 0 32 32">
<path d="M0.001 16.051l-0.001 0c0 0 0 0.003 0.001 0.007 0.003 0.121 0.017 0.24 0.041 0.355 0.006 0.055 0.013 0.114 0.021 0.18 0.007 0.059 0.014 0.122 0.022 0.19 0.012 0.080 0.024 0.165 0.037 0.256 0.027 0.18 0.056 0.379 0.091 0.592 0.042 0.201 0.088 0.419 0.136 0.652 0.022 0.116 0.055 0.235 0.087 0.356s0.065 0.247 0.099 0.375c0.018 0.064 0.032 0.129 0.053 0.194s0.041 0.131 0.062 0.197 0.085 0.268 0.129 0.406c0.011 0.035 0.022 0.069 0.033 0.104 0.013 0.034 0.025 0.069 0.038 0.104 0.026 0.069 0.052 0.139 0.078 0.21 0.053 0.14 0.107 0.284 0.162 0.429 0.061 0.143 0.124 0.288 0.188 0.435 0.032 0.073 0.064 0.147 0.096 0.222s0.071 0.147 0.107 0.221c0.073 0.147 0.146 0.297 0.221 0.448 0.077 0.15 0.163 0.297 0.245 0.448 0.042 0.075 0.084 0.15 0.126 0.226s0.091 0.148 0.136 0.223c0.092 0.148 0.185 0.298 0.279 0.448 0.395 0.59 0.834 1.174 1.319 1.727 0.491 0.549 1.023 1.070 1.584 1.55 0.568 0.473 1.165 0.903 1.773 1.285 0.613 0.376 1.239 0.697 1.856 0.973 0.156 0.064 0.311 0.127 0.465 0.19 0.077 0.030 0.152 0.064 0.229 0.091s0.154 0.054 0.23 0.081 0.302 0.108 0.453 0.156c0.151 0.045 0.3 0.089 0.447 0.133 0.074 0.021 0.146 0.045 0.219 0.063s0.146 0.036 0.218 0.053c0.144 0.035 0.286 0.069 0.425 0.103 0.141 0.027 0.279 0.054 0.415 0.080 0.068 0.013 0.135 0.026 0.201 0.038 0.033 0.006 0.066 0.012 0.099 0.019 0.033 0.005 0.066 0.009 0.099 0.014 0.131 0.018 0.259 0.036 0.384 0.053 0.062 0.009 0.124 0.017 0.185 0.026s0.122 0.012 0.182 0.018c0.119 0.011 0.236 0.021 0.349 0.031s0.222 0.021 0.329 0.023c0.007 0 0.014 0 0.021 0.001 0.019 1.088 0.906 1.964 1.999 1.964 0.017 0 0.034-0.001 0.051-0.001v0.001c0 0 0.003-0 0.007-0.001 0.121-0.003 0.24-0.017 0.355-0.041 0.055-0.006 0.114-0.013 0.18-0.021 0.059-0.007 0.122-0.014 0.19-0.022 0.080-0.012 0.165-0.024 0.256-0.037 0.18-0.027 0.379-0.056 0.592-0.091 0.201-0.042 0.419-0.088 0.652-0.136 0.116-0.022 0.235-0.056 0.356-0.087s0.247-0.065 0.375-0.099c0.064-0.018 0.129-0.032 0.194-0.053s0.13-0.041 0.197-0.062 0.268-0.085 0.406-0.129c0.035-0.011 0.069-0.022 0.104-0.033 0.034-0.013 0.069-0.025 0.104-0.038 0.069-0.026 0.139-0.052 0.21-0.078 0.14-0.053 0.284-0.107 0.429-0.162 0.143-0.061 0.288-0.124 0.436-0.188 0.073-0.032 0.147-0.064 0.222-0.096s0.147-0.071 0.221-0.107c0.147-0.073 0.297-0.146 0.448-0.221 0.15-0.077 0.297-0.163 0.448-0.245 0.075-0.042 0.15-0.084 0.226-0.126s0.148-0.091 0.223-0.136c0.148-0.092 0.298-0.185 0.448-0.279 0.59-0.395 1.174-0.834 1.727-1.319 0.549-0.491 1.070-1.023 1.55-1.584 0.473-0.568 0.903-1.165 1.285-1.773 0.376-0.613 0.697-1.239 0.973-1.855 0.064-0.156 0.127-0.311 0.19-0.465 0.030-0.077 0.064-0.152 0.091-0.229s0.054-0.154 0.081-0.23 0.108-0.302 0.156-0.453c0.045-0.151 0.089-0.3 0.133-0.447 0.021-0.074 0.045-0.146 0.063-0.219s0.036-0.146 0.053-0.218c0.035-0.144 0.069-0.286 0.103-0.425 0.027-0.141 0.054-0.279 0.080-0.415 0.013-0.068 0.026-0.135 0.038-0.201 0.006-0.033 0.012-0.066 0.019-0.099 0.005-0.033 0.009-0.066 0.014-0.099 0.018-0.131 0.036-0.259 0.053-0.384 0.009-0.062 0.017-0.124 0.026-0.185s0.012-0.122 0.018-0.182c0.011-0.119 0.021-0.236 0.031-0.349s0.021-0.222 0.023-0.329c0.001-0.017 0.001-0.033 0.002-0.049 1.101-0.005 1.992-0.898 1.992-2 0-0.017-0.001-0.034-0.001-0.051h0.001c0 0-0-0.003-0.001-0.007-0.003-0.121-0.017-0.24-0.041-0.355-0.006-0.055-0.013-0.114-0.021-0.181-0.007-0.059-0.014-0.122-0.022-0.19-0.012-0.080-0.024-0.165-0.037-0.255-0.027-0.18-0.056-0.379-0.091-0.592-0.042-0.201-0.088-0.419-0.136-0.652-0.022-0.116-0.055-0.235-0.087-0.357s-0.065-0.247-0.099-0.375c-0.018-0.064-0.032-0.129-0.053-0.194s-0.041-0.13-0.062-0.197-0.085-0.268-0.129-0.406c-0.011-0.034-0.022-0.069-0.033-0.104-0.013-0.034-0.025-0.069-0.038-0.104-0.026-0.069-0.052-0.139-0.078-0.21-0.053-0.141-0.107-0.284-0.162-0.429-0.061-0.143-0.124-0.288-0.188-0.435-0.032-0.073-0.064-0.147-0.096-0.222s-0.071-0.147-0.107-0.221c-0.073-0.147-0.146-0.297-0.221-0.448-0.077-0.15-0.163-0.297-0.245-0.448-0.042-0.075-0.084-0.15-0.126-0.226s-0.091-0.148-0.136-0.223c-0.092-0.148-0.185-0.298-0.279-0.448-0.395-0.59-0.834-1.174-1.319-1.727-0.491-0.549-1.023-1.070-1.584-1.55-0.568-0.473-1.165-0.903-1.773-1.285-0.613-0.376-1.239-0.697-1.855-0.973-0.156-0.064-0.311-0.127-0.465-0.19-0.077-0.030-0.152-0.063-0.229-0.091s-0.154-0.054-0.23-0.081-0.302-0.108-0.453-0.156c-0.151-0.045-0.3-0.089-0.447-0.133-0.074-0.021-0.146-0.045-0.219-0.063s-0.146-0.036-0.218-0.053c-0.144-0.035-0.286-0.069-0.425-0.103-0.141-0.027-0.279-0.054-0.415-0.080-0.068-0.013-0.135-0.026-0.201-0.038-0.033-0.006-0.066-0.012-0.099-0.019-0.033-0.005-0.066-0.009-0.099-0.014-0.131-0.018-0.259-0.036-0.384-0.053-0.062-0.009-0.124-0.017-0.185-0.026s-0.122-0.012-0.182-0.018c-0.119-0.010-0.236-0.021-0.349-0.031s-0.222-0.021-0.329-0.023c-0.027-0.001-0.052-0.002-0.078-0.003-0.020-1.087-0.907-1.962-1.999-1.962-0.017 0-0.034 0.001-0.051 0.001l-0-0.001c0 0-0.003 0-0.007 0.001-0.121 0.003-0.24 0.017-0.355 0.041-0.055 0.006-0.114 0.013-0.181 0.021-0.059 0.007-0.122 0.014-0.19 0.022-0.080 0.012-0.165 0.024-0.255 0.037-0.18 0.027-0.379 0.056-0.592 0.091-0.201 0.042-0.419 0.088-0.652 0.136-0.116 0.022-0.235 0.056-0.356 0.087s-0.247 0.065-0.375 0.099c-0.064 0.018-0.129 0.032-0.194 0.053s-0.13 0.041-0.197 0.062-0.268 0.085-0.406 0.129c-0.034 0.011-0.069 0.022-0.104 0.033-0.034 0.013-0.069 0.025-0.104 0.038-0.069 0.026-0.139 0.052-0.21 0.078-0.14 0.053-0.284 0.107-0.429 0.162-0.143 0.061-0.288 0.124-0.435 0.188-0.073 0.032-0.147 0.064-0.222 0.096s-0.147 0.071-0.221 0.107c-0.147 0.073-0.297 0.146-0.448 0.221-0.15 0.077-0.297 0.163-0.448 0.245-0.075 0.042-0.15 0.084-0.226 0.126s-0.148 0.091-0.223 0.136c-0.148 0.092-0.298 0.185-0.448 0.279-0.59 0.395-1.174 0.834-1.727 1.319-0.549 0.491-1.070 1.023-1.55 1.584-0.473 0.568-0.903 1.165-1.285 1.773-0.376 0.613-0.697 1.239-0.973 1.855-0.064 0.156-0.127 0.311-0.19 0.465-0.030 0.077-0.063 0.152-0.091 0.229s-0.054 0.154-0.081 0.23-0.108 0.302-0.156 0.453c-0.045 0.151-0.089 0.3-0.132 0.447-0.021 0.074-0.045 0.146-0.063 0.219s-0.036 0.146-0.053 0.218c-0.035 0.144-0.069 0.286-0.103 0.425-0.027 0.141-0.054 0.279-0.080 0.415-0.013 0.068-0.026 0.135-0.038 0.201-0.006 0.033-0.012 0.066-0.019 0.099-0.005 0.033-0.009 0.066-0.014 0.099-0.018 0.131-0.036 0.259-0.053 0.384-0.009 0.062-0.017 0.124-0.026 0.185s-0.012 0.122-0.018 0.182c-0.010 0.119-0.021 0.236-0.031 0.349s-0.021 0.222-0.023 0.329c-0.001 0.017-0.001 0.034-0.002 0.051-1.074 0.035-1.934 0.916-1.934 1.998 0 0.017 0.001 0.034 0.001 0.051zM2.297 14.022c0.001-0.006 0.003-0.012 0.004-0.018 0.020-0.101 0.051-0.204 0.080-0.311s0.059-0.215 0.090-0.327c0.016-0.056 0.029-0.113 0.048-0.169s0.038-0.113 0.057-0.171 0.077-0.233 0.117-0.353c0.010-0.030 0.020-0.060 0.030-0.090 0.012-0.030 0.023-0.060 0.035-0.090 0.023-0.060 0.047-0.121 0.071-0.182 0.047-0.122 0.096-0.246 0.145-0.373 0.055-0.124 0.111-0.25 0.168-0.377 0.028-0.064 0.057-0.128 0.086-0.192s0.064-0.127 0.095-0.191c0.065-0.128 0.13-0.257 0.197-0.388 0.069-0.129 0.145-0.257 0.219-0.387 0.037-0.065 0.074-0.13 0.112-0.195s0.081-0.128 0.121-0.193c0.082-0.128 0.164-0.257 0.247-0.388 0.351-0.509 0.739-1.012 1.167-1.489 0.434-0.472 0.901-0.919 1.394-1.33 0.499-0.404 1.021-0.77 1.552-1.094 0.535-0.319 1.081-0.589 1.617-0.821 0.136-0.053 0.271-0.106 0.404-0.158 0.067-0.025 0.132-0.053 0.199-0.076s0.134-0.045 0.2-0.067 0.262-0.090 0.392-0.129c0.131-0.037 0.26-0.073 0.387-0.109 0.064-0.017 0.126-0.037 0.189-0.052s0.126-0.029 0.189-0.043c0.124-0.028 0.247-0.056 0.367-0.084 0.121-0.021 0.241-0.043 0.358-0.063 0.058-0.010 0.116-0.021 0.173-0.031 0.029-0.005 0.057-0.010 0.085-0.015 0.029-0.003 0.057-0.007 0.085-0.010 0.113-0.014 0.223-0.028 0.331-0.041 0.054-0.007 0.107-0.013 0.159-0.020s0.105-0.008 0.157-0.013c0.103-0.007 0.203-0.015 0.3-0.022s0.191-0.016 0.283-0.016c0.183-0.004 0.354-0.008 0.512-0.012 0.146 0.005 0.28 0.010 0.401 0.014 0.060 0.002 0.116 0.003 0.17 0.005 0.066 0.004 0.128 0.008 0.186 0.012 0.067 0.004 0.127 0.008 0.182 0.012 0.102 0.016 0.206 0.024 0.312 0.024 0.015 0 0.029-0.001 0.044-0.001 0.004 0 0.007 0 0.007 0v-0.001c0.973-0.024 1.773-0.743 1.924-1.68 0.017 0.004 0.033 0.007 0.050 0.011 0.101 0.020 0.204 0.051 0.311 0.080s0.215 0.059 0.327 0.090c0.056 0.016 0.113 0.029 0.169 0.048s0.113 0.038 0.171 0.057 0.233 0.077 0.353 0.117c0.030 0.010 0.060 0.020 0.090 0.030 0.030 0.012 0.060 0.023 0.090 0.035 0.060 0.023 0.121 0.047 0.182 0.071 0.122 0.047 0.246 0.096 0.373 0.145 0.124 0.055 0.25 0.111 0.378 0.168 0.064 0.028 0.128 0.057 0.192 0.086s0.127 0.064 0.191 0.095c0.128 0.065 0.257 0.13 0.388 0.197 0.13 0.069 0.257 0.145 0.387 0.219 0.065 0.037 0.13 0.074 0.195 0.112s0.128 0.081 0.193 0.121c0.128 0.082 0.257 0.164 0.388 0.247 0.509 0.351 1.012 0.739 1.489 1.167 0.472 0.434 0.919 0.901 1.33 1.394 0.404 0.499 0.77 1.021 1.094 1.552 0.319 0.535 0.589 1.081 0.821 1.617 0.053 0.136 0.106 0.271 0.158 0.404 0.025 0.067 0.053 0.132 0.076 0.199s0.045 0.134 0.067 0.2 0.090 0.262 0.129 0.392c0.037 0.131 0.073 0.26 0.109 0.387 0.017 0.064 0.037 0.126 0.052 0.189s0.029 0.126 0.043 0.189c0.028 0.124 0.056 0.247 0.084 0.367 0.021 0.121 0.043 0.241 0.063 0.358 0.010 0.058 0.020 0.116 0.031 0.173 0.005 0.029 0.010 0.057 0.015 0.085 0.003 0.029 0.007 0.057 0.010 0.085 0.014 0.113 0.028 0.223 0.041 0.331 0.007 0.054 0.014 0.107 0.020 0.159s0.008 0.105 0.013 0.157c0.007 0.103 0.015 0.203 0.022 0.3s0.016 0.191 0.016 0.283c0.004 0.183 0.008 0.354 0.012 0.512-0.005 0.146-0.010 0.28-0.014 0.401-0.002 0.060-0.003 0.116-0.005 0.17-0.004 0.066-0.008 0.128-0.012 0.186-0.004 0.067-0.008 0.127-0.012 0.182-0.016 0.102-0.024 0.206-0.024 0.312 0 0.015 0.001 0.029 0.001 0.044-0 0.004-0 0.007-0 0.007h0.001c0.024 0.961 0.726 1.754 1.646 1.918-0.002 0.009-0.004 0.018-0.006 0.028-0.020 0.102-0.051 0.204-0.080 0.311s-0.059 0.215-0.090 0.327c-0.016 0.056-0.029 0.113-0.048 0.169s-0.038 0.113-0.057 0.171-0.077 0.233-0.117 0.353c-0.010 0.030-0.020 0.060-0.030 0.090-0.012 0.030-0.023 0.060-0.035 0.090-0.023 0.060-0.047 0.121-0.071 0.182-0.047 0.122-0.096 0.246-0.145 0.373-0.055 0.124-0.111 0.25-0.169 0.378-0.028 0.064-0.057 0.128-0.086 0.192s-0.064 0.127-0.095 0.191c-0.065 0.128-0.13 0.257-0.197 0.388-0.069 0.129-0.145 0.257-0.219 0.387-0.037 0.065-0.074 0.13-0.112 0.195s-0.081 0.128-0.121 0.193c-0.082 0.128-0.164 0.257-0.247 0.388-0.351 0.509-0.738 1.012-1.167 1.489-0.434 0.472-0.901 0.919-1.394 1.33-0.499 0.404-1.021 0.77-1.552 1.094-0.535 0.319-1.081 0.589-1.617 0.821-0.136 0.053-0.271 0.106-0.404 0.158-0.067 0.025-0.132 0.053-0.199 0.076s-0.134 0.045-0.2 0.067-0.262 0.090-0.392 0.129c-0.131 0.037-0.26 0.073-0.387 0.109-0.064 0.017-0.126 0.037-0.189 0.052s-0.126 0.029-0.189 0.043c-0.124 0.028-0.247 0.056-0.367 0.084-0.122 0.021-0.241 0.043-0.358 0.063-0.058 0.010-0.116 0.021-0.173 0.031-0.029 0.005-0.057 0.010-0.085 0.015-0.029 0.003-0.057 0.007-0.085 0.010-0.113 0.014-0.223 0.028-0.331 0.041-0.054 0.007-0.107 0.014-0.159 0.020s-0.105 0.008-0.157 0.013c-0.103 0.007-0.203 0.015-0.3 0.022s-0.191 0.016-0.283 0.016c-0.183 0.004-0.354 0.008-0.512 0.012-0.146-0.005-0.28-0.010-0.401-0.014-0.060-0.002-0.116-0.003-0.17-0.005-0.066-0.004-0.128-0.008-0.186-0.012-0.067-0.004-0.127-0.008-0.182-0.012-0.102-0.016-0.206-0.024-0.312-0.024-0.015 0-0.029 0.001-0.044 0.001-0.004-0-0.007-0-0.007-0v0.001c-0.969 0.024-1.766 0.737-1.921 1.668-0.1-0.020-0.201-0.050-0.306-0.079-0.106-0.029-0.215-0.059-0.327-0.090-0.056-0.016-0.113-0.029-0.169-0.048s-0.113-0.038-0.171-0.057-0.233-0.077-0.353-0.117c-0.030-0.010-0.060-0.020-0.090-0.030-0.030-0.012-0.060-0.023-0.090-0.035-0.060-0.023-0.121-0.047-0.182-0.071-0.122-0.048-0.246-0.096-0.373-0.145-0.124-0.055-0.25-0.111-0.377-0.168-0.064-0.028-0.128-0.057-0.192-0.086s-0.127-0.064-0.191-0.095c-0.128-0.065-0.257-0.13-0.388-0.197-0.13-0.069-0.257-0.145-0.387-0.219-0.065-0.037-0.13-0.074-0.195-0.112s-0.128-0.081-0.193-0.121c-0.128-0.082-0.257-0.164-0.388-0.247-0.509-0.351-1.012-0.738-1.489-1.166-0.472-0.434-0.919-0.901-1.33-1.394-0.404-0.499-0.77-1.021-1.094-1.552-0.319-0.535-0.589-1.081-0.821-1.617-0.053-0.136-0.106-0.271-0.158-0.404-0.025-0.067-0.053-0.132-0.076-0.199s-0.045-0.134-0.067-0.2-0.090-0.262-0.129-0.392c-0.037-0.131-0.073-0.26-0.109-0.387-0.017-0.064-0.037-0.126-0.052-0.189s-0.029-0.126-0.043-0.189c-0.028-0.124-0.056-0.247-0.084-0.367-0.021-0.121-0.043-0.241-0.063-0.358-0.010-0.058-0.021-0.116-0.031-0.173-0.005-0.029-0.010-0.057-0.015-0.085-0.003-0.029-0.007-0.057-0.010-0.085-0.014-0.113-0.028-0.223-0.041-0.331-0.007-0.054-0.013-0.107-0.020-0.159s-0.008-0.105-0.013-0.157c-0.007-0.103-0.015-0.203-0.022-0.3s-0.016-0.191-0.016-0.283c-0.004-0.183-0.008-0.354-0.012-0.512 0.005-0.146 0.010-0.28 0.014-0.401 0.002-0.060 0.003-0.116 0.005-0.17 0.004-0.066 0.008-0.128 0.012-0.186 0.004-0.067 0.008-0.127 0.012-0.182 0.015-0.102 0.024-0.206 0.024-0.312 0-0.015-0.001-0.029-0.001-0.044 0-0.004 0.001-0.007 0.001-0.007h-0.001c-0.024-0.981-0.754-1.786-1.701-1.927z"></path>
</symbol>
<symbol id="icon-spinner11" viewBox="0 0 32 32">
<path d="M32 12h-12l4.485-4.485c-2.267-2.266-5.28-3.515-8.485-3.515s-6.219 1.248-8.485 3.515c-2.266 2.267-3.515 5.28-3.515 8.485s1.248 6.219 3.515 8.485c2.267 2.266 5.28 3.515 8.485 3.515s6.219-1.248 8.485-3.515c0.189-0.189 0.371-0.384 0.546-0.583l3.010 2.634c-2.933 3.349-7.239 5.464-12.041 5.464-8.837 0-16-7.163-16-16s7.163-16 16-16c4.418 0 8.418 1.791 11.313 4.687l4.687-4.687v12z"></path>
</symbol>
<symbol id="icon-cog1" viewBox="0 0 32 32">
<path d="M29.181 19.070c-1.679-2.908-0.669-6.634 2.255-8.328l-3.145-5.447c-0.898 0.527-1.943 0.829-3.058 0.829-3.361 0-6.085-2.742-6.085-6.125h-6.289c0.008 1.044-0.252 2.103-0.811 3.070-1.679 2.908-5.411 3.897-8.339 2.211l-3.144 5.447c0.905 0.515 1.689 1.268 2.246 2.234 1.676 2.903 0.672 6.623-2.241 8.319l3.145 5.447c0.895-0.522 1.935-0.82 3.044-0.82 3.35 0 6.067 2.725 6.084 6.092h6.289c-0.003-1.034 0.259-2.080 0.811-3.038 1.676-2.903 5.399-3.894 8.325-2.219l3.145-5.447c-0.899-0.515-1.678-1.266-2.232-2.226zM16 22.479c-3.578 0-6.479-2.901-6.479-6.479s2.901-6.479 6.479-6.479c3.578 0 6.479 2.901 6.479 6.479s-2.901 6.479-6.479 6.479z"></path>
</symbol>
<symbol id="icon-cogs" viewBox="0 0 32 32">
<path d="M11.366 22.564l1.291-1.807-1.414-1.414-1.807 1.291c-0.335-0.187-0.694-0.337-1.071-0.444l-0.365-2.19h-2l-0.365 2.19c-0.377 0.107-0.736 0.256-1.071 0.444l-1.807-1.291-1.414 1.414 1.291 1.807c-0.187 0.335-0.337 0.694-0.443 1.071l-2.19 0.365v2l2.19 0.365c0.107 0.377 0.256 0.736 0.444 1.071l-1.291 1.807 1.414 1.414 1.807-1.291c0.335 0.187 0.694 0.337 1.071 0.444l0.365 2.19h2l0.365-2.19c0.377-0.107 0.736-0.256 1.071-0.444l1.807 1.291 1.414-1.414-1.291-1.807c0.187-0.335 0.337-0.694 0.444-1.071l2.19-0.365v-2l-2.19-0.365c-0.107-0.377-0.256-0.736-0.444-1.071zM7 27c-1.105 0-2-0.895-2-2s0.895-2 2-2 2 0.895 2 2-0.895 2-2 2zM32 12v-2l-2.106-0.383c-0.039-0.251-0.088-0.499-0.148-0.743l1.799-1.159-0.765-1.848-2.092 0.452c-0.132-0.216-0.273-0.426-0.422-0.629l1.219-1.761-1.414-1.414-1.761 1.219c-0.203-0.149-0.413-0.29-0.629-0.422l0.452-2.092-1.848-0.765-1.159 1.799c-0.244-0.059-0.492-0.109-0.743-0.148l-0.383-2.106h-2l-0.383 2.106c-0.251 0.039-0.499 0.088-0.743 0.148l-1.159-1.799-1.848 0.765 0.452 2.092c-0.216 0.132-0.426 0.273-0.629 0.422l-1.761-1.219-1.414 1.414 1.219 1.761c-0.149 0.203-0.29 0.413-0.422 0.629l-2.092-0.452-0.765 1.848 1.799 1.159c-0.059 0.244-0.109 0.492-0.148 0.743l-2.106 0.383v2l2.106 0.383c0.039 0.251 0.088 0.499 0.148 0.743l-1.799 1.159 0.765 1.848 2.092-0.452c0.132 0.216 0.273 0.426 0.422 0.629l-1.219 1.761 1.414 1.414 1.761-1.219c0.203 0.149 0.413 0.29 0.629 0.422l-0.452 2.092 1.848 0.765 1.159-1.799c0.244 0.059 0.492 0.109 0.743 0.148l0.383 2.106h2l0.383-2.106c0.251-0.039 0.499-0.088 0.743-0.148l1.159 1.799 1.848-0.765-0.452-2.092c0.216-0.132 0.426-0.273 0.629-0.422l1.761 1.219 1.414-1.414-1.219-1.761c0.149-0.203 0.29-0.413 0.422-0.629l2.092 0.452 0.765-1.848-1.799-1.159c0.059-0.244 0.109-0.492 0.148-0.743l2.106-0.383zM21 15.35c-2.402 0-4.35-1.948-4.35-4.35s1.948-4.35 4.35-4.35 4.35 1.948 4.35 4.35c0 2.402-1.948 4.35-4.35 4.35z"></path>
</symbol>
</defs>
</svg>
